<?xml version="1.0" encoding="utf-8"?>
<!-- Generator: Adobe Illustrator 27.6.1, SVG Export Plug-In . SVG Version: 6.00 Build 0)  -->
<svg version="1.1" id="Layer_1" xmlns="http://www.w3.org/2000/svg" xmlns:xlink="http://www.w3.org/1999/xlink" x="0px" y="0px"
	 viewBox="0 0 500 500" style="enable-background:new 0 0 500 500;" xml:space="preserve">
<style type="text/css">
	.st0{fill:#F9F4F4;}
	.st1{clip-path:url(#SVGID_00000148662677704096375870000014564686686411008396_);}
	.st2{fill:#2D2C2A;stroke:#2D2C2A;stroke-width:3.282;stroke-miterlimit:10;}
	.st3{fill:#D95D29;}
	.st4{fill:#2D2C2A;}
	.st5{fill:#E06027;}
	.st6{fill:#2D2C2A;stroke:#2D2C2A;stroke-width:8.7546;stroke-miterlimit:10;}
	.st7{fill:#D85B29;}
</style>
<path class="st0" d="M466.1,151.6l-12.8,10.2c-2.7-6.5-5.8-12.9-9.1-19.1c3.1-3.2,5.9-6.1,8.4-8.7l3-3.1
	C459.5,137.6,463,144.5,466.1,151.6z"/>
<g>
	<path class="st0" d="M295.5,294.2l6.1-4.9l153.6-122.4l12.9-10.3l15.4-12.3c4.3-3.4,10.6-2.9,14.2,1.1c1.7,1.9,2.5,4.2,2.3,6.6
		c-0.2,2.5-1.4,4.7-3.4,6.3c-0.7,0.5-8.9,6.4-22,15.8c-4,2.9-8.6,6.1-13.5,9.7c-33.9,24.4-86.5,62.2-132.1,95
		c-7.6,5.5-14.7,10.6-21.2,15.3L295.5,294.2L295.5,294.2z"/>
</g>
<g>
	<path class="st0" d="M280.3,294.2L431.5,122l10.7-12.2l4.1-4.6c3.6-4,9.9-4.6,14.2-1.2c2,1.6,3.3,3.8,3.5,6.3
		c0.2,2.4-0.6,4.8-2.2,6.6c-0.4,0.4-3.6,3.7-9,9.3c-3.1,3.2-7,7.2-11.4,11.8c-27.7,28.5-78.7,81-122.3,125.8
		c-7.7,7.9-14.8,15.2-21.1,21.8c-2.9,3-5.8,5.9-8.5,8.7L280.3,294.2L280.3,294.2z"/>
</g>
<g>
	<path class="st0" d="M479.6,308.2c-26.3,105.9-122.2,184.7-236.2,184.7S33.5,414.2,7.2,308.2H479.6z"/>
</g>
<path class="st0" d="M439.3,105.4l-10.7,12.1c-41.3-57.8-109-95.6-185.3-95.6C117.9,21.9,15.8,124,15.8,249.5
	c0,15.3,1.5,30.2,4.4,44.7H4.1C1.4,279.7,0,264.8,0,249.5C0,115.3,109.2,6.2,243.4,6.2C323.7,6.2,395,45.3,439.3,105.4z"/>
<path class="st0" d="M486.7,249.5c0,15.3-1.4,30.2-4.1,44.7h-16.1c2.9-14.5,4.4-29.4,4.4-44.7c0-20.9-2.8-41.1-8.1-60.3
	c4.9-3.5,9.5-6.8,13.6-9.8C483.1,201.7,486.7,225.2,486.7,249.5z"/>
<g>
	<g>
		<g>
			<defs>
				<rect id="SVGID_1_" x="41.8" y="109.8" width="414" height="184.4"/>
			</defs>
			<clipPath id="SVGID_00000103258687327364866570000009794381974120624829_">
				<use xlink:href="#SVGID_1_"  style="overflow:visible;"/>
			</clipPath>
			<g style="clip-path:url(#SVGID_00000103258687327364866570000009794381974120624829_);">
				<g id="XMEwit_00000176023551977869726740000004722256845213759388_">
					<g>
						<path class="st2" d="M213,281.8c-2.1-12.3-7-23.4-14.6-33.3c-11.2-14.6-25.7-24.1-43.5-28.6c-8.3-2.1-16.8-2.7-25.3-2
							c-15.6,1.2-29.5,6.7-41.8,16.3c-13.8,10.7-23,24.6-27.4,41.5c-1,4-1.5,8.1-2.2,12.2c-0.1,0.3-0.2,0.6-0.2,0.9v13.5
							c0.3,2.3,0.6,4.5,1,6.8c2,11.9,6.7,22.7,13.8,32.4c10.1,13.7,23.4,23.2,39.6,28.4c5.5,1.8,11.2,2.8,17,3.3
							c13.2,1,25.8-1,37.9-6.2c7.8-3.4,14.9-8,21.2-13.7c11.8-10.8,19.7-23.9,23.5-39.4c0.8-3.4,1.2-6.9,1.8-10.3
							c0.1-0.4,0.2-0.7,0.2-1.1V289C213.7,286.4,213.4,284.1,213,281.8z M204.4,303.1c-1.5,13.1-6.3,24.9-14.5,35.3
							c-4.9,6.2-10.6,11.5-17.4,15.6c-1.6,1-3.8,1.2-5.8,1.5c-13.8,1.8-26.6-1.3-38.6-8.1c-13.3-7.6-22.4-18.6-26.1-33.7
							c-2.2-9.1-2.6-18.3,0.4-27.4c3.5-10.6,11-17.4,21.3-21.4c4.7-1.8,9.6-2.8,14.7-2.6c6.3,0.3,11.9,2.3,16.8,6.3
							c6.7,5.5,10.4,12.8,12,21.2c1.7,9-3.2,19.9-10,24.2c-3.3,2.1-6.9,3.3-10.7,2.8c-4.9-0.6-8.2-3.7-9.9-8.2
							c-1.8-4.8-0.4-9.3,1.6-13.7c0.6-1.3,1.3-2.6,0.7-4.2c-0.6-1.7-1.8-2.8-3.6-3.1c-1.7-0.3-3.4,0.3-4.3,1.9
							c-4.5,8.2-6.1,16.8-1.3,25.4c3.3,6,8.5,9.9,15.3,10.8c6.7,0.9,13-1,18.4-5.1c7.3-5.6,11.3-13.2,12.7-22.1
							c1.5-10.2-1.6-19.4-7.2-27.8c-5.2-7.9-12.3-13.4-21.5-15.9c-6.3-1.8-12.7-1.8-19.1-0.4c-7.4,1.6-14.2,4.5-20.2,9.2
							c-7.7,6-12.7,13.7-15,23.1c-1.8,7-1.9,14.1-1.1,21.2c1.2,10.7,4.9,20.4,11.2,29.1c5.5,7.5,12.3,13.4,20.3,18
							c7,4,14.4,6.8,22.3,8.5c0.4,0.1,0.7,0.1,1.1,0.2c0,0.1,0,0.2,0,0.2c-2,0.2-4.1,0.6-6.1,0.7c-8.4,0.4-16.6-0.3-24.7-2.8
							c-13.4-4.1-24.5-11.6-33.4-22.4c-7.6-9.2-12.6-19.8-14.5-31.6c-3.4-20.5,1-39.2,13.9-55.5c10.4-13.1,23.9-21.6,40.4-24.8
							c20.4-3.9,39,0.4,55.5,13.1c13.6,10.5,22,24.3,25.5,41C205,288.7,205.3,295.9,204.4,303.1z"/>
						<path class="st3" d="M204.4,303.1c-1.5,13.1-6.3,24.9-14.5,35.3c-4.9,6.2-10.6,11.5-17.4,15.6c-1.6,1-3.8,1.2-5.8,1.5
							c-13.8,1.8-26.6-1.3-38.6-8.1c-13.3-7.6-22.4-18.6-26.1-33.7c-2.2-9.1-2.6-18.3,0.4-27.4c3.5-10.6,11-17.4,21.3-21.4
							c4.7-1.8,9.6-2.8,14.7-2.6c6.3,0.3,11.9,2.3,16.8,6.3c6.7,5.5,10.4,12.8,12,21.2c1.7,9-3.2,19.9-10,24.2
							c-3.3,2.1-6.9,3.3-10.7,2.8c-4.9-0.6-8.2-3.7-9.9-8.2c-1.8-4.8-0.4-9.3,1.6-13.7c0.6-1.3,1.3-2.6,0.7-4.2
							c-0.6-1.7-1.8-2.8-3.6-3.1c-1.7-0.3-3.4,0.3-4.3,1.9c-4.5,8.2-6.1,16.8-1.3,25.4c3.3,6,8.5,9.9,15.3,10.8
							c6.7,0.9,13-1,18.4-5.1c7.3-5.6,11.3-13.2,12.7-22.1c1.5-10.2-1.6-19.4-7.2-27.8c-5.2-7.9-12.3-13.4-21.5-15.9
							c-6.3-1.8-12.7-1.8-19.1-0.4c-7.4,1.6-14.2,4.5-20.2,9.2c-7.7,6-12.7,13.7-15,23.1c-1.8,7-1.9,14.1-1.1,21.2
							c1.2,10.7,4.9,20.4,11.2,29.1c5.5,7.5,12.3,13.4,20.3,18c7,4,14.4,6.8,22.3,8.5c0.4,0.1,0.7,0.1,1.1,0.2c0,0.1,0,0.2,0,0.2
							c-2,0.2-4.1,0.6-6.1,0.7c-8.4,0.4-16.6-0.3-24.7-2.8c-13.4-4.1-24.5-11.6-33.4-22.4c-7.6-9.2-12.6-19.8-14.5-31.6
							c-3.4-20.5,1-39.2,13.9-55.5c10.4-13.1,23.9-21.6,40.4-24.8c20.4-3.9,39,0.4,55.5,13.1c13.6,10.5,22,24.3,25.5,41
							C205,288.7,205.3,295.9,204.4,303.1z"/>
					</g>
				</g>
				<g id="XMEwit_00000101065798956782678280000013404764761488197311_">
					<g>
						<path class="st4" d="M365.6,231.9c-3.6-21-12-40-24.9-56.9c-19.1-24.9-43.9-41.2-74.3-49c-14.2-3.6-28.7-4.6-43.3-3.4
							c-26.6,2.1-50.5,11.4-71.5,27.8c-23.5,18.4-39.3,42.1-46.9,71c-1.8,6.8-2.5,13.9-3.7,20.8c-0.1,0.5-0.3,1-0.4,1.5v23.1
							c0.6,3.9,1.1,7.7,1.7,11.6c3.5,20.4,11.4,38.8,23.7,55.4c17.3,23.5,40,39.6,67.8,48.5c9.4,3,19.1,4.9,29,5.6
							c22.5,1.8,44.1-1.7,64.9-10.7c13.4-5.8,25.4-13.6,36.2-23.4c20.2-18.4,33.7-40.9,40.1-67.4c1.4-5.8,2-11.8,3-17.6
							c0.1-0.7,0.3-1.3,0.4-2v-23.1C366.9,239.8,366.3,235.8,365.6,231.9z M351.1,268.4c-2.6,22.5-10.8,42.6-24.7,60.4
							c-8.3,10.7-18.1,19.7-29.7,26.7c-2.8,1.7-6.6,2.1-10,2.5c-23.6,3-45.5-2.2-66-13.9c-22.8-13-38.4-31.8-44.7-57.6
							c-3.8-15.6-4.4-31.3,0.7-46.8c5.9-18.2,18.8-29.8,36.3-36.5c8-3.1,16.4-4.9,25.1-4.5c10.8,0.5,20.4,3.9,28.7,10.8
							c11.4,9.4,17.8,21.8,20.5,36.2c3,15.4-5.5,33.9-17.1,41.4c-5.5,3.6-11.8,5.7-18.3,4.9c-8.4-1.1-14-6.3-17-14.1
							c-3.1-8.2-0.8-16,2.8-23.5c1-2.3,2.2-4.5,1.2-7.2c-1.1-3-3.1-4.9-6.2-5.3c-3-0.5-5.8,0.6-7.3,3.2
							c-7.6,14.1-10.4,28.7-2.3,43.5c5.6,10.3,14.5,16.9,26.2,18.5c11.5,1.5,22.2-1.7,31.4-8.7c12.5-9.5,19.4-22.6,21.7-37.8
							c2.6-17.4-2.7-33.1-12.2-47.6c-8.9-13.5-21-22.8-36.7-27.2c-10.8-3.1-21.7-3.1-32.7-0.7c-12.6,2.7-24.2,7.8-34.5,15.7
							c-13.2,10.2-21.6,23.4-25.7,39.5c-3,12-3.3,24.1-1.9,36.3c2.1,18.2,8.3,34.9,19.2,49.7c9.3,12.8,21,22.9,34.7,30.9
							c11.9,6.9,24.6,11.5,38,14.5c0.6,0.1,1.3,0.2,1.9,0.3c0,0.1,0,0.3,0,0.4c-3.5,0.4-6.9,1-10.4,1.2c-14.3,0.7-28.5-0.5-42.3-4.8
							c-22.8-7.1-41.8-19.9-57-38.3c-13-15.8-21.5-33.9-24.9-54c-5.9-35,1.8-67,23.8-94.9c17.7-22.5,40.8-36.9,69.1-42.3
							c34.9-6.7,66.7,0.6,94.9,22.3c23.2,17.9,37.6,41.4,43.6,70.1C352,243.7,352.5,256,351.1,268.4z"/>
						<path class="st5" d="M351.1,268.4c-2.6,22.5-10.8,42.6-24.7,60.4c-8.3,10.7-18.1,19.7-29.7,26.7c-2.8,1.7-6.6,2.1-10,2.5
							c-23.6,3-45.5-2.2-66-13.9c-22.8-13-38.4-31.8-44.7-57.6c-3.8-15.6-4.4-31.3,0.7-46.8c5.9-18.2,18.8-29.8,36.3-36.5
							c8-3.1,16.4-4.9,25.1-4.5c10.8,0.5,20.4,3.9,28.7,10.8c11.4,9.4,17.8,21.8,20.5,36.2c3,15.4-5.5,33.9-17.1,41.4
							c-5.5,3.6-11.8,5.7-18.3,4.9c-8.4-1.1-14-6.3-17-14.1c-3.1-8.2-0.8-16,2.8-23.5c1-2.3,2.2-4.5,1.2-7.2c-1.1-3-3.1-4.9-6.2-5.3
							c-3-0.5-5.8,0.6-7.3,3.2c-7.6,14.1-10.4,28.7-2.3,43.5c5.6,10.3,14.5,16.9,26.2,18.5c11.5,1.5,22.2-1.7,31.4-8.7
							c12.5-9.5,19.4-22.6,21.7-37.8c2.6-17.4-2.7-33.1-12.2-47.6c-8.9-13.5-21-22.8-36.7-27.2c-10.8-3.1-21.7-3.1-32.7-0.7
							c-12.6,2.7-24.2,7.8-34.5,15.7c-13.2,10.2-21.6,23.4-25.7,39.5c-3,12-3.3,24.1-1.9,36.3c2.1,18.2,8.3,34.9,19.2,49.7
							c9.3,12.8,21,22.9,34.7,30.9c11.9,6.9,24.6,11.5,38,14.5c0.6,0.1,1.3,0.2,1.9,0.3c0,0.1,0,0.3,0,0.4c-3.5,0.4-6.9,1-10.4,1.2
							c-14.3,0.7-28.5-0.5-42.3-4.8c-22.8-7.1-41.8-19.9-57-38.3c-13-15.8-21.5-33.9-24.9-54c-5.9-35,1.8-67,23.8-94.9
							c17.7-22.5,40.8-36.9,69.1-42.3c34.9-6.7,66.7,0.6,94.9,22.3c23.2,17.9,37.6,41.4,43.6,70.1C352,243.7,352.5,256,351.1,268.4z
							"/>
					</g>
				</g>
				<g id="XMEwit_00000163785651088138165680000002080994464336869033_">
					<g>
						<path class="st6" d="M440.4,298.6c-1.4-17.1-7.3-32.4-17.9-45.9c-11.8-15.1-27-25.2-45.5-30.1c-4.4-1.2-8.9-1.6-13.4-2.4
							c-0.3,0-0.7-0.1-1-0.2h-14.8c-2.5,0.4-5,0.7-7.4,1.1c-13,2.2-24.9,7.3-35.5,15.2c-15.1,11.1-25.4,25.7-31.2,43.5
							c-1.9,6.1-3.1,12.2-3.6,18.6c-1.1,14.5,1,28.3,6.8,41.6c3.7,8.6,8.8,16.3,15.1,23.3c11.8,13,26.2,21.6,43.3,25.8
							c3.7,0.9,7.5,1.3,11.3,1.9c0.4,0.1,0.8,0.2,1.2,0.3h14.8c2.5-0.4,5-0.7,7.6-1.2c13.5-2.3,25.7-7.7,36.5-16
							c16-12.2,26.4-28.2,31.5-47.7C440.5,317.3,441.1,308,440.4,298.6z M415.4,351.8c-11.5,14.9-26.6,24.1-45,28
							c-7.8,1.7-15.7,1.9-23.7,1c-14.4-1.7-27.3-7-38.8-15.9c-6.8-5.3-12.6-11.6-17.1-19.1c-1.1-1.8-1.3-4.2-1.6-6.4
							c-1.9-15.1,1.4-29.2,8.9-42.3c8.3-14.6,20.4-24.6,37-28.7c10-2.5,20.1-2.8,30,0.4c11.7,3.8,19.1,12.1,23.4,23.3
							c2,5.2,3.1,10.5,2.9,16.1c-0.3,6.9-2.5,13.1-7,18.4c-6.1,7.3-14,11.4-23.2,13.2c-9.9,1.9-21.8-3.5-26.6-10.9
							c-2.3-3.6-3.6-7.6-3.1-11.7c0.7-5.4,4-9,9-10.9c5.3-2,10.2-0.5,15.1,1.8c1.5,0.7,2.9,1.4,4.6,0.8c1.9-0.7,3.1-2,3.4-4
							c0.3-1.9-0.4-3.7-2.1-4.7c-9-4.9-18.4-6.7-27.9-1.4c-6.6,3.6-10.9,9.3-11.8,16.8c-1,7.4,1.1,14.3,5.6,20.2
							c6.1,8,14.5,12.5,24.3,13.9c11.2,1.7,21.3-1.7,30.5-7.8c8.6-5.7,14.6-13.5,17.5-23.6c1.9-7,2-14,0.5-21
							c-1.7-8.1-5-15.6-10.1-22.2c-6.6-8.4-15-13.9-25.4-16.5c-7.7-1.9-15.5-2.1-23.3-1.2c-11.7,1.3-22.4,5.4-31.9,12.3
							c-8.2,6-14.7,13.5-19.8,22.3c-4.4,7.6-7.4,15.8-9.3,24.4c-0.1,0.4-0.1,0.8-0.2,1.3c-0.1,0-0.2,0-0.2,0
							c-0.3-2.2-0.7-4.5-0.8-6.7c-0.5-9.2,0.3-18.3,3.1-27.1c4.6-14.7,12.7-26.8,24.6-36.6c10.2-8.4,21.8-13.8,34.7-16
							c22.5-3.8,43,1.2,60.9,15.3c14.5,11.3,23.7,26.2,27.2,44.3C434,313.3,429.4,333.7,415.4,351.8z"/>
						<path class="st7" d="M415.4,351.8c-11.5,14.9-26.6,24.1-45,28c-7.8,1.7-15.7,1.9-23.7,1c-14.4-1.7-27.3-7-38.8-15.9
							c-6.8-5.3-12.6-11.6-17.1-19.1c-1.1-1.8-1.3-4.2-1.6-6.4c-1.9-15.1,1.4-29.2,8.9-42.3c8.3-14.6,20.4-24.6,37-28.7
							c10-2.5,20.1-2.8,30,0.4c11.7,3.8,19.1,12.1,23.4,23.3c2,5.2,3.1,10.5,2.9,16.1c-0.3,6.9-2.5,13.1-7,18.4
							c-6.1,7.3-14,11.4-23.2,13.2c-9.9,1.9-21.8-3.5-26.6-10.9c-2.3-3.6-3.6-7.6-3.1-11.7c0.7-5.4,4-9,9-10.9
							c5.3-2,10.2-0.5,15.1,1.8c1.5,0.7,2.9,1.4,4.6,0.8c1.9-0.7,3.1-2,3.4-4c0.3-1.9-0.4-3.7-2.1-4.7c-9-4.9-18.4-6.7-27.9-1.4
							c-6.6,3.6-10.9,9.3-11.8,16.8c-1,7.4,1.1,14.3,5.6,20.2c6.1,8,14.5,12.5,24.3,13.9c11.2,1.7,21.3-1.7,30.5-7.8
							c8.6-5.7,14.6-13.5,17.5-23.6c1.9-7,2-14,0.5-21c-1.7-8.1-5-15.6-10.1-22.2c-6.6-8.4-15-13.9-25.4-16.5
							c-7.7-1.9-15.5-2.1-23.3-1.2c-11.7,1.3-22.4,5.4-31.9,12.3c-8.2,6-14.7,13.5-19.8,22.3c-4.4,7.6-7.4,15.8-9.3,24.4
							c-0.1,0.4-0.1,0.8-0.2,1.3c-0.1,0-0.2,0-0.2,0c-0.3-2.2-0.7-4.5-0.8-6.7c-0.5-9.2,0.3-18.3,3.1-27.1
							c4.6-14.7,12.7-26.8,24.6-36.6c10.2-8.4,21.8-13.8,34.7-16c22.5-3.8,43,1.2,60.9,15.3c14.5,11.3,23.7,26.2,27.2,44.3
							C434,313.3,429.4,333.7,415.4,351.8z"/>
					</g>
				</g>
			</g>
		</g>
	</g>
</g>
</svg>
